<svg id="logosandtypes_com" xmlns="http://www.w3.org/2000/svg" viewBox="0 0 150 150.2"><style>.st1{fill:#1d2e49}</style><g id="Layer_2"><path id="Layer_3" d="M0 .2h150v150H0V.2z" fill="none"/></g><g id="guthrie_theater"><path class="st1" d="M77.4 137.8c35.8 0 60.2-24.6 44.3-42.7-6.2 13.3-19.8 19.8-34.6 19.8C62.3 115 41 95 41 68.2 41 41 63.1 19.1 90.2 19.1c9.1 0 17.6 2.5 25 6.8-5.9-8.2-17.2-15.7-37.8-15.7-35.2 0-63.8 28.5-63.8 63.8-.1 35.2 28.6 63.8 63.8 63.8z"/><path class="st1" d="M88.4 58.1c0 5.7 15 14.3 15 14.3s-15 8.5-15 14.3h13.1c14.4 0 25.8 1.7 29.3 14.9 3.3-9.1 4.1-18.9 2.9-24.5-4.3-18.6-18.5-18.9-32.2-18.9H88.4z"/></g></svg>